<?xml version="1.0" encoding="UTF-8"?>
<svg xmlns="http://www.w3.org/2000/svg" width="32pt" height="32pt" viewBox="0 0 64 64" version="1.1">
    <g id="surface1">
        <rect fill="none" x="-1" y="-1" width="32" height="32"/>
        <path style=" stroke:none;fill-rule:nonzero;fill:rgb(86.666667%,87.45098%,90.196078%);fill-opacity:1;"
              d="M 51.296875 32.316406 L 31.972656 32.316406 L 31.972656 13.046875 C 21.335938 13.0625 12.71875 21.679688 12.703125 32.316406 C 12.703125 32.324219 12.703125 32.335938 12.703125 32.34375 C 12.703125 42.992188 21.328125 51.628906 31.972656 51.644531 C 31.980469 51.644531 31.992188 51.644531 32 51.644531 C 42.660156 51.644531 51.296875 43.003906 51.296875 32.34375 C 51.296875 32.335938 51.296875 32.324219 51.296875 32.316406 Z M 51.296875 32.316406 "/>
        <path style=" stroke:none;fill-rule:nonzero;fill:rgb(73.333333%,74.901961%,80%);fill-opacity:1;"
              d="M 31.972656 32.375 L 31.972656 19.9375 C 25.132812 19.953125 19.59375 25.503906 19.59375 32.34375 C 19.59375 32.355469 19.59375 32.363281 19.59375 32.375 C 19.609375 39.203125 25.140625 44.734375 31.972656 44.75 C 31.980469 44.75 31.992188 44.75 32 44.75 C 38.84375 44.75 44.390625 39.210938 44.40625 32.375 Z M 31.972656 32.375 "/>
        <path style=" stroke:none;fill-rule:nonzero;fill:rgb(53.333333%,56.470588%,65.098039%);fill-opacity:1;"
              d="M 31.972656 32.375 L 31.972656 26.832031 C 28.9375 26.847656 26.484375 29.308594 26.484375 32.34375 C 26.484375 32.355469 26.488281 32.363281 26.488281 32.375 C 26.503906 35.394531 28.949219 37.84375 31.972656 37.859375 C 31.980469 37.859375 31.992188 37.859375 32 37.859375 C 35.035156 37.859375 37.496094 35.40625 37.511719 32.375 Z M 31.972656 32.375 "/>
        <path style=" stroke:none;fill-rule:nonzero;fill:rgb(60%,62.745098%,70.196078%);fill-opacity:1;"
              d="M 32 38.546875 C 28.578125 38.546875 25.796875 35.765625 25.796875 32.34375 C 25.796875 28.925781 28.578125 26.140625 32 26.140625 C 32.378906 26.140625 32.6875 26.449219 32.6875 26.832031 C 32.6875 27.210938 32.378906 27.519531 32 27.519531 C 29.339844 27.519531 27.175781 29.683594 27.175781 32.34375 C 27.175781 35.003906 29.339844 37.167969 32 37.167969 C 33.542969 37.167969 34.957031 36.457031 35.878906 35.214844 C 36.105469 34.910156 36.535156 34.84375 36.84375 35.070312 C 37.148438 35.300781 37.210938 35.730469 36.984375 36.035156 C 35.820312 37.609375 33.957031 38.546875 32 38.546875 Z M 32 38.546875 "/>
        <path style=" stroke:none;fill-rule:nonzero;fill:rgb(66.666667%,68.627451%,74.901961%);fill-opacity:1;"
              d="M 26.640625 21.84375 C 26.382812 21.84375 26.136719 21.699219 26.019531 21.449219 C 25.855469 21.109375 26 20.695312 26.34375 20.53125 C 28.113281 19.679688 30.019531 19.25 32 19.25 C 32.972656 19.25 33.941406 19.355469 34.882812 19.566406 C 35.253906 19.652344 35.488281 20.019531 35.402344 20.390625 C 35.320312 20.761719 34.953125 20.996094 34.578125 20.914062 C 33.738281 20.722656 32.871094 20.628906 32 20.628906 C 30.226562 20.628906 28.523438 21.011719 26.9375 21.773438 C 26.84375 21.820312 26.742188 21.84375 26.640625 21.84375 Z M 26.640625 21.84375 "/>
        <path style=" stroke:none;fill-rule:nonzero;fill:rgb(66.666667%,68.627451%,74.901961%);fill-opacity:1;"
              d="M 21.976562 40.347656 C 21.765625 40.347656 21.554688 40.25 21.421875 40.0625 C 19.773438 37.8125 18.90625 35.144531 18.90625 32.34375 C 18.90625 30.023438 19.519531 27.746094 20.683594 25.753906 C 20.875 25.425781 21.296875 25.3125 21.625 25.503906 C 21.953125 25.695312 22.066406 26.117188 21.871094 26.449219 C 20.832031 28.230469 20.28125 30.269531 20.28125 32.34375 C 20.28125 34.847656 21.0625 37.234375 22.535156 39.25 C 22.757812 39.558594 22.691406 39.988281 22.382812 40.214844 C 22.261719 40.304688 22.117188 40.347656 21.976562 40.347656 Z M 21.976562 40.347656 "/>
        <path style=" stroke:none;fill-rule:nonzero;fill:rgb(66.666667%,68.627451%,74.901961%);fill-opacity:1;"
              d="M 32 45.441406 C 30.464844 45.441406 28.960938 45.175781 27.53125 44.65625 C 27.171875 44.527344 26.988281 44.132812 27.117188 43.773438 C 27.25 43.417969 27.644531 43.230469 28 43.363281 C 29.28125 43.824219 30.625 44.0625 32 44.0625 C 34.777344 44.0625 37.472656 43.074219 39.585938 41.277344 C 39.875 41.027344 40.308594 41.0625 40.554688 41.355469 C 40.804688 41.644531 40.769531 42.078125 40.476562 42.324219 C 38.117188 44.335938 35.105469 45.441406 32 45.441406 Z M 32 45.441406 "/>
        <path style=" stroke:none;fill-rule:nonzero;fill:rgb(66.666667%,68.627451%,74.901961%);fill-opacity:1;"
              d="M 32 52.332031 C 26.660156 52.332031 21.640625 50.253906 17.867188 46.476562 C 14.089844 42.703125 12.011719 37.683594 12.011719 32.34375 C 12.011719 27.003906 14.089844 21.988281 17.867188 18.210938 C 21.640625 14.4375 26.660156 12.355469 32 12.355469 C 33.167969 12.355469 34.335938 12.457031 35.472656 12.65625 C 35.847656 12.722656 36.097656 13.082031 36.035156 13.457031 C 35.96875 13.832031 35.609375 14.082031 35.234375 14.015625 C 34.175781 13.828125 33.085938 13.734375 32 13.734375 C 21.738281 13.734375 13.390625 22.082031 13.390625 32.34375 C 13.390625 42.605469 21.738281 50.953125 32 50.953125 C 37.042969 50.953125 41.761719 48.96875 45.292969 45.367188 C 45.558594 45.097656 45.996094 45.09375 46.265625 45.359375 C 46.539062 45.625 46.542969 46.0625 46.277344 46.332031 C 42.484375 50.203125 37.414062 52.332031 32 52.332031 Z M 32 52.332031 "/>
        <path style=" stroke:none;fill-rule:nonzero;fill:rgb(66.666667%,68.627451%,74.901961%);fill-opacity:1;"
              d="M 47.847656 44.050781 C 47.710938 44.050781 47.574219 44.007812 47.453125 43.925781 C 47.140625 43.707031 47.066406 43.277344 47.28125 42.964844 C 49.457031 39.839844 50.609375 36.167969 50.609375 32.34375 C 50.609375 31.964844 50.917969 31.65625 51.296875 31.65625 C 51.679688 31.65625 51.988281 31.964844 51.988281 32.34375 C 51.988281 36.449219 50.75 40.394531 48.414062 43.753906 C 48.277344 43.945312 48.066406 44.050781 47.847656 44.050781 Z M 47.847656 44.050781 "/>
        <path style=" stroke:none;fill-rule:nonzero;fill:rgb(46.666667%,50.196078%,60%);fill-opacity:1;"
              d="M 36.09375 31.65625 L 32.71875 31.65625 L 32.71875 10.289062 C 32.71875 9.910156 32.410156 9.601562 32.027344 9.601562 C 31.648438 9.601562 31.339844 9.910156 31.339844 10.289062 L 31.339844 31.65625 L 10.632812 31.65625 C 10.253906 31.65625 9.945312 31.964844 9.945312 32.34375 C 9.945312 32.726562 10.253906 33.035156 10.632812 33.035156 L 31.339844 33.035156 L 31.339844 53.710938 C 31.339844 54.089844 31.648438 54.398438 32.027344 54.398438 C 32.410156 54.398438 32.71875 54.089844 32.71875 53.710938 L 32.71875 33.035156 L 36.09375 33.035156 C 36.472656 33.035156 36.78125 32.726562 36.78125 32.34375 C 36.78125 31.964844 36.472656 31.65625 36.09375 31.65625 Z M 36.09375 31.65625 "/>
        <path style=" stroke:none;fill-rule:nonzero;fill:rgb(46.666667%,50.196078%,60%);fill-opacity:1;"
              d="M 53.367188 31.65625 L 47.292969 31.65625 C 46.910156 31.65625 46.601562 31.964844 46.601562 32.34375 C 46.601562 32.726562 46.910156 33.035156 47.292969 33.035156 L 53.367188 33.035156 C 53.746094 33.035156 54.054688 32.726562 54.054688 32.34375 C 54.054688 31.964844 53.746094 31.65625 53.367188 31.65625 Z M 53.367188 31.65625 "/>
        <path style=" stroke:none;fill-rule:nonzero;fill:rgb(100%,41.960784%,18.039216%);fill-opacity:1;"
              d="M 23.039062 18.042969 C 20.757812 18.042969 18.90625 19.898438 18.90625 22.179688 C 18.90625 25.015625 22.402344 28.546875 22.550781 28.695312 C 22.816406 28.960938 23.261719 28.960938 23.527344 28.695312 C 23.675781 28.546875 27.175781 25.015625 27.175781 22.179688 C 27.175781 19.898438 25.320312 18.042969 23.039062 18.042969 Z M 23.039062 18.042969 "/>
        <path style=" stroke:none;fill-rule:nonzero;fill:rgb(100%,28.627451%,0%);fill-opacity:1;"
              d="M 20.28125 22.007812 C 20.28125 20.140625 21.523438 18.5625 23.222656 18.046875 C 23.160156 18.046875 23.101562 18.042969 23.039062 18.042969 C 20.757812 18.042969 18.90625 19.898438 18.90625 22.179688 C 18.90625 25.015625 22.402344 28.546875 22.550781 28.695312 C 22.816406 28.960938 23.261719 28.960938 23.527344 28.695312 C 23.550781 28.671875 23.652344 28.570312 23.808594 28.402344 C 23.167969 27.734375 20.28125 24.582031 20.28125 22.007812 Z M 20.28125 22.007812 "/>
        <path style=" stroke:none;fill-rule:nonzero;fill:rgb(96.078431%,72.941176%,63.529412%);fill-opacity:1;"
              d="M 23.039062 20.195312 C 21.949219 20.195312 21.058594 21.085938 21.058594 22.179688 C 21.058594 23.269531 21.949219 24.160156 23.039062 24.160156 C 24.132812 24.160156 25.023438 23.269531 25.023438 22.179688 C 25.023438 21.085938 24.132812 20.195312 23.039062 20.195312 Z M 23.039062 20.195312 "/>
        <path style=" stroke:none;fill-rule:nonzero;fill:rgb(100%,41.960784%,18.039216%);fill-opacity:1;"
              d="M 25.109375 37.167969 C 22.828125 37.167969 20.972656 39.023438 20.972656 41.304688 C 20.972656 44.140625 24.472656 47.675781 24.621094 47.824219 C 24.886719 48.089844 25.328125 48.089844 25.59375 47.824219 C 25.742188 47.675781 29.242188 44.140625 29.242188 41.304688 C 29.242188 39.023438 27.386719 37.167969 25.109375 37.167969 Z M 25.109375 37.167969 "/>
        <path style=" stroke:none;fill-rule:nonzero;fill:rgb(100%,28.627451%,0%);fill-opacity:1;"
              d="M 26 47.308594 C 25.851562 47.160156 22.351562 43.628906 22.351562 40.789062 C 22.351562 39.28125 23.164062 37.957031 24.378906 37.234375 C 22.445312 37.582031 20.972656 39.273438 20.972656 41.304688 C 20.972656 44.140625 24.472656 47.671875 24.621094 47.824219 C 24.886719 48.089844 25.328125 48.089844 25.59375 47.824219 C 25.625 47.792969 25.792969 47.621094 26.042969 47.347656 C 26.027344 47.335938 26.011719 47.324219 26 47.308594 Z M 26 47.308594 "/>
        <path style=" stroke:none;fill-rule:nonzero;fill:rgb(96.078431%,72.941176%,63.529412%);fill-opacity:1;"
              d="M 25.109375 39.324219 C 24.015625 39.324219 23.125 40.210938 23.125 41.304688 C 23.125 42.398438 24.015625 43.285156 25.109375 43.285156 C 26.199219 43.285156 27.089844 42.398438 27.089844 41.304688 C 27.089844 40.210938 26.199219 39.324219 25.109375 39.324219 Z M 25.109375 39.324219 "/>
        <path style=" stroke:none;fill-rule:nonzero;fill:rgb(22.745098%,76.078431%,45.490196%);fill-opacity:1;"
              d="M 41.648438 27.519531 C 38.230469 27.519531 35.445312 30.300781 35.445312 33.722656 C 35.445312 38.09375 40.929688 43.625 41.160156 43.859375 C 41.425781 44.125 41.871094 44.125 42.136719 43.859375 C 42.371094 43.625 47.851562 38.09375 47.851562 33.722656 C 47.851562 30.300781 45.070312 27.519531 41.648438 27.519531 Z M 41.648438 27.519531 "/>
        <path style=" stroke:none;fill-rule:nonzero;fill:rgb(8.235294%,69.803922%,34.901961%);fill-opacity:1;"
              d="M 42.539062 43.171875 C 42.308594 42.941406 36.824219 37.40625 36.824219 33.035156 C 36.824219 30.882812 37.929688 28.980469 39.601562 27.867188 C 37.183594 28.71875 35.445312 31.019531 35.445312 33.722656 C 35.445312 38.09375 40.929688 43.625 41.160156 43.859375 C 41.425781 44.125 41.871094 44.125 42.136719 43.859375 C 42.175781 43.820312 42.378906 43.613281 42.6875 43.28125 C 42.632812 43.253906 42.585938 43.21875 42.539062 43.171875 Z M 42.539062 43.171875 "/>
        <path style=" stroke:none;fill-rule:nonzero;fill:rgb(71.372549%,94.509804%,81.176471%);fill-opacity:1;"
              d="M 41.648438 30.277344 C 39.75 30.277344 38.203125 31.824219 38.203125 33.722656 C 38.203125 35.625 39.75 37.167969 41.648438 37.167969 C 43.550781 37.167969 45.09375 35.625 45.09375 33.722656 C 45.09375 31.824219 43.550781 30.277344 41.648438 30.277344 Z M 41.648438 30.277344 "/>
    </g>
</svg>
